<?xml version="1.0" encoding="UTF-8" standalone="no"?>
<svg
   viewBox="0 0 222.4 222.4"
   class="Nav__logo--gradient"
   version="1.1"
   id="svg9"
   width="222.39999"
   height="222.39999"
   xmlns="http://www.w3.org/2000/svg"
   xmlns:svg="http://www.w3.org/2000/svg">
  <defs
     id="defs13" />
  <linearGradient
     id="SVGID_1_"
     x1="47.529999"
     x2="170.70799"
     y1="79.100998"
     y2="-44.077"
     gradientUnits="userSpaceOnUse"
     gradientTransform="translate(0,91.757756)">
    <stop
       offset="0"
       stop-color="#e32929"
       id="stop2" />
    <stop
       offset="1"
       stop-color="#ff8d30"
       id="stop4" />
  </linearGradient>
  <path
     fill="url(#SVGID_1_)"
     d="M 146.7,121.25776 H 135 l -3,9 h -6.5 l 13.4,-38.500004 h 8 l 13.4,38.500004 h -7.1 L 142.6,98.657756 136.8,115.55776 H 145 Z M 29.7,91.757756 v 25.400004 c 0,8.9 -5.8,13.6 -14.9,13.6 -9,0 -14.8,-4.7 -14.8,-13.6 V 91.757756 h 6.5 v 25.400004 c 0,5.2 3.2,7.9 8.2,7.9 5.2,0 8.4,-2.7 8.4,-7.9 V 91.757756 Z m 21.2,12.000004 v 26.5 H 44.4 V 91.757756 h 6.1 l 17,26.500004 V 91.757756 H 74 V 130.25776 H 67.9 Z M 171.3,91.757756 h 6.5 v 38.500004 h -6.5 z m 51.1,24.700004 c 0,9 -5.9,13.8 -15.2,13.8 H 192.7 V 91.757756 h 14.6 c 9.2,0 15.1,4.8 15.1,13.800004 z m -6.6,-10.9 c 0,-5.3 -3.3,-8.100004 -8.5,-8.100004 h -8.1 v 27.100004 h 8 c 5.3,0 8.6,-2.8 8.6,-8.1 z m -107.5,10.1 c 4.3,-1.6 6.9,-5.3 6.9,-11.5 0,-8.700004 -5.1,-12.400004 -12.8,-12.400004 H 88.8 v 38.500004 h 6.5 V 97.457756 h 6.9 c 3.8,0 6.2,1.8 6.2,6.700004 0,4.9 -2.4,6.8 -6.2,6.8 h -3.4 l 9.2,19.4 h 7.5 z"
     id="path7"
     style="fill:url(#SVGID_1_)" />
</svg>
